# xmcd
#
# Track frame offsets: 
#        150
#        13277
#        25487
#        40297
#        59089
#        77105
#        89875
#        103552
#        115802
#        138610
#        151330
#        165477
#
# Disc length: 2367 seconds
#
# Revision: 0
# Processed by: cddbd v1.5.2PL0 Copyright (c) Steve Scherf et al.
# Submitted via: ExactAudioCopy v1.0b1
#
DISCID=a6093d0c
DTITLE=Ramblin' minds - In a sober mind
DYEAR=2005
DGENRE=Blues
TTITLE0=Dirt Under Your Sole
TTITLE1=Suger Sweet
TTITLE2=Reet, Petite and Gone
TTITLE3=Ain't Gonna Cry
TTITLE4=Diatonic Madness
TTITLE5=Hard Way
TTITLE6=The Deacon Don't Like It
TTITLE7=Lollypop Mama
TTITLE8=Talk To Me, Talk To Me
TTITLE9=Mad About The Boy
TTITLE10=Ain't That Just Lika a Woman
TTITLE11=Midnight Blues
EXTD=
EXTT0=
EXTT1=
EXTT2=
EXTT3=
EXTT4=
EXTT5=
EXTT6=
EXTT7=
EXTT8=
EXTT9=
EXTT10=
EXTT11=
PLAYORDER=
